<svg width="32" height="33" viewBox="0 0 32 33" fill="none" xmlns="http://www.w3.org/2000/svg">
<circle cx="16" cy="16.0984" r="14.5" fill="#5182EF" stroke="#FEFEFE" stroke-width="3"/>
<g clip-path="url(#clip0_3004_1032)">
<path d="M21.5492 12.6034L19.4942 10.5484C19.226 10.2965 18.8746 10.1519 18.5067 10.1422C18.1389 10.1326 17.7803 10.2584 17.4992 10.4959L10.7492 17.2459C10.5068 17.4904 10.3559 17.8108 10.3217 18.1534L9.99925 21.2809C9.98914 21.3908 10.0034 21.5015 10.041 21.6052C10.0786 21.7089 10.1386 21.803 10.2167 21.8809C10.2868 21.9504 10.3699 22.0054 10.4613 22.0427C10.5527 22.0801 10.6505 22.099 10.7492 22.0984H10.8167L13.9442 21.8134C14.2868 21.7793 14.6073 21.6283 14.8517 21.3859L21.6017 14.6359C21.8637 14.3591 22.0053 13.9898 21.9955 13.6088C21.9856 13.2278 21.8252 12.8663 21.5492 12.6034ZM18.9992 15.1084L16.9892 13.0984L18.4517 11.5984L20.4992 13.6459L18.9992 15.1084Z" fill="#FEFEFE"/>
</g>
<defs>
<clipPath id="clip0_3004_1032">
<rect width="18" height="18" fill="white" transform="translate(7 7.09839)"/>
</clipPath>
</defs>
</svg>
