<svg width="8" height="8" viewBox="0 0 8 8" fill="none" xmlns="http://www.w3.org/2000/svg">
<g clip-path="url(#clip0_8036_755)">
<path d="M1 2.00008H1.66667M1.66667 2.00008H7M1.66667 2.00008L1.66667 6.66675C1.66667 6.84356 1.7369 7.01313 1.86193 7.13815C1.98695 7.26318 2.15652 7.33341 2.33333 7.33341H5.66667C5.84348 7.33341 6.01305 7.26318 6.13807 7.13815C6.2631 7.01313 6.33333 6.84356 6.33333 6.66675V2.00008M2.66667 2.00008V1.33341C2.66667 1.1566 2.7369 0.987034 2.86193 0.86201C2.98695 0.736986 3.15652 0.666748 3.33333 0.666748H4.66667C4.84348 0.666748 5.01305 0.736986 5.13807 0.86201C5.2631 0.987034 5.33333 1.1566 5.33333 1.33341V2.00008" stroke="#6B7280" stroke-width="0.8" stroke-linecap="round" stroke-linejoin="round"/>
</g>
<defs>
<clipPath id="clip0_8036_755">
<rect width="8" height="8" fill="white"/>
</clipPath>
</defs>
</svg>
